<?xml version="1.0" encoding="UTF-8" standalone="no"?>
<!-- Created with Inkscape (http://www.inkscape.org/) -->

<svg
   width="28.046005mm"
   height="33.053284mm"
   viewBox="0 0 28.046005 33.053284"
   version="1.1"
   id="svg40087"
   xml:space="preserve"
   inkscape:version="1.2.1 (9c6d41e410, 2022-07-14)"
   sodipodi:docname="armebijou.svg"
   xmlns:inkscape="http://www.inkscape.org/namespaces/inkscape"
   xmlns:sodipodi="http://sodipodi.sourceforge.net/DTD/sodipodi-0.dtd"
   xmlns:xlink="http://www.w3.org/1999/xlink"
   xmlns="http://www.w3.org/2000/svg"
   xmlns:svg="http://www.w3.org/2000/svg"><sodipodi:namedview
     id="namedview40089"
     pagecolor="#ffffff"
     bordercolor="#000000"
     borderopacity="0.25"
     inkscape:showpageshadow="2"
     inkscape:pageopacity="0.0"
     inkscape:pagecheckerboard="0"
     inkscape:deskcolor="#d1d1d1"
     inkscape:document-units="mm"
     showgrid="false"
     inkscape:zoom="5.6568542"
     inkscape:cx="274.97615"
     inkscape:cy="1030.343"
     inkscape:window-width="1920"
     inkscape:window-height="1001"
     inkscape:window-x="-9"
     inkscape:window-y="-9"
     inkscape:window-maximized="1"
     inkscape:current-layer="layer8" /><defs
     id="defs40084"><linearGradient
       inkscape:collect="always"
       id="linearGradient72642"><stop
         style="stop-color:#9600e2;stop-opacity:1;"
         offset="0"
         id="stop72638" /><stop
         style="stop-color:#450066;stop-opacity:1;"
         offset="1"
         id="stop72640" /></linearGradient><linearGradient
       inkscape:collect="always"
       id="linearGradient72509"><stop
         style="stop-color:#d7b700;stop-opacity:1;"
         offset="0"
         id="stop72505" /><stop
         style="stop-color:#ffde17;stop-opacity:1;"
         offset="1"
         id="stop72507" /></linearGradient><linearGradient
       inkscape:collect="always"
       id="linearGradient72501"><stop
         style="stop-color:#9e7300;stop-opacity:1;"
         offset="0"
         id="stop72497" /><stop
         style="stop-color:#775600;stop-opacity:1;"
         offset="1"
         id="stop72499" /></linearGradient><linearGradient
       inkscape:collect="always"
       id="linearGradient72493"><stop
         style="stop-color:#faca62;stop-opacity:1;"
         offset="0"
         id="stop72489" /><stop
         style="stop-color:#ffbf20;stop-opacity:1;"
         offset="0.20823529"
         id="stop75057" /><stop
         style="stop-color:#a67500;stop-opacity:1;"
         offset="1"
         id="stop72491" /></linearGradient><linearGradient
       inkscape:collect="always"
       xlink:href="#linearGradient72493"
       id="linearGradient72495"
       x1="76.872116"
       y1="262.05341"
       x2="102.07046"
       y2="271.17596"
       gradientUnits="userSpaceOnUse" /><linearGradient
       inkscape:collect="always"
       xlink:href="#linearGradient72501"
       id="linearGradient72503"
       x1="80.367188"
       y1="268.60266"
       x2="82.444229"
       y2="258.78052"
       gradientUnits="userSpaceOnUse" /><linearGradient
       inkscape:collect="always"
       xlink:href="#linearGradient72509"
       id="linearGradient72511"
       x1="86.182022"
       y1="276.69315"
       x2="83.248917"
       y2="264.06467"
       gradientUnits="userSpaceOnUse" /><linearGradient
       inkscape:collect="always"
       xlink:href="#linearGradient72642"
       id="linearGradient72644"
       x1="78.663216"
       y1="276.78683"
       x2="87.365532"
       y2="276.78683"
       gradientUnits="userSpaceOnUse" /><filter
       inkscape:collect="always"
       style="color-interpolation-filters:sRGB"
       id="filter74817"
       x="-0.68878627"
       y="-0.62616926"
       width="2.3775725"
       height="2.2523384"><feGaussianBlur
         inkscape:collect="always"
         stdDeviation="3.5532034"
         id="feGaussianBlur74819" /></filter></defs><g
     inkscape:groupmode="layer"
     id="layer8"
     inkscape:label="bague"
     style="opacity:1"
     transform="translate(-71.507601,-257.17291)"><ellipse
       style="display:none;opacity:0.460106;fill:none;fill-opacity:1;stroke:#543c00;stroke-width:4.20259;stroke-linecap:round;stroke-linejoin:miter;stroke-miterlimit:5.2;stroke-dasharray:none;stroke-opacity:1"
       id="path64223"
       cx="271.69366"
       cy="101.87827"
       rx="11.630145"
       ry="5.7164526"
       transform="matrix(0.63012743,0.77649174,-0.81642922,0.57744552,0,0)" /><path
       style="opacity:1;fill:url(#linearGradient72511);fill-opacity:1;stroke:none;stroke-width:0.0980001;stroke-linecap:round;stroke-linejoin:miter;stroke-miterlimit:5.2;stroke-dasharray:none;stroke-opacity:1"
       d="m 80.571987,260.62191 c 0,0 -0.784704,0.31924 -1.143799,1.81045 -0.194857,0.80918 -0.357389,2.93997 -0.02012,4.35032 0.494247,2.06676 1.50745,3.78296 2.910417,5.672 1.797548,2.42032 4.0335,4.74275 6.779947,5.9862 1.427548,0.64632 3.105718,0.76741 4.663282,0.59531 0.547662,-0.0605 2.301839,-0.60754 2.301839,-0.60754 0,0 -2.605102,0.0944 -3.542784,-0.2696 -2.511318,-0.97501 -4.78751,-2.72947 -6.729629,-4.59643 -1.226021,-1.17857 -2.314559,-2.65154 -3.174999,-4.15064 -0.86044,-1.4991 -1.770459,-3.08834 -2.182813,-4.79558 -0.165833,-0.68658 -0.02151,-1.37593 -0.05245,-2.08158 -0.02368,-0.54013 0.191103,-1.91291 0.191103,-1.91291 z"
       id="path72161"
       sodipodi:nodetypes="csassscsszsscc" /><path
       style="display:inline;opacity:1;fill:none;fill-opacity:1;stroke:url(#linearGradient72495);stroke-width:2.767;stroke-linecap:round;stroke-linejoin:miter;stroke-miterlimit:5.2;stroke-dasharray:none;stroke-opacity:1"
       d="m 79.540081,270.75036 c -1.956772,-3.30352 -2.675134,-9.73138 0.720957,-11.58579 4.74549,-2.59124 10.894201,3.59893 14.163943,7.90508 2.411793,3.17626 5.259946,8.48224 2.810627,11.62965 -2.029263,2.60764 -7.541496,1.89037 -9.911973,0.10957 -3.420265,-2.56944 -5.265078,-3.80669 -7.783554,-8.05851 z"
       id="path64697"
       sodipodi:nodetypes="saaass" /><path
       style="opacity:1;fill:url(#linearGradient72503);fill-opacity:1;stroke:none;stroke-width:4.198;stroke-linecap:round;stroke-linejoin:miter;stroke-miterlimit:5.2;stroke-dasharray:none;stroke-opacity:1"
       d="m 80.367186,262.20208 c 0,0 0.07079,-2.53654 1.008724,-3.05924 2.084612,-1.16172 4.955773,0.37756 6.961849,1.67018 2.222219,1.43189 4.516446,3.59825 6.416146,6.05234 1.89045,2.44214 3.658804,6.63875 3.540464,8.56187 -0.06535,1.062 -0.728848,2.17117 -1.622235,2.74907 -0.670568,0.43377 -2.38125,0.26458 -2.38125,0.26458 0,0 1.144495,-1.37369 1.289844,-2.21589 0.33573,-1.94533 -0.317885,-4.0046 -1.091407,-5.82083 -0.732397,-1.71967 -1.959257,-3.21952 -3.257681,-4.56406 -1.559307,-1.61468 -3.352583,-3.06001 -5.341276,-4.10104 -0.769119,-0.40261 -1.617698,-0.69749 -2.48047,-0.79375 -0.626908,-0.0699 -1.30963,-0.0929 -1.885155,0.16535 -0.483849,0.21709 -1.157553,1.09142 -1.157553,1.09142 z"
       id="path64807"
       sodipodi:nodetypes="casssacaaaaaac" /><path
       style="opacity:1;fill:url(#linearGradient72644);fill-opacity:1;stroke:#000000;stroke-width:0.098;stroke-linecap:round;stroke-linejoin:miter;stroke-miterlimit:5.2;stroke-dasharray:none;stroke-opacity:1"
       d="m 79.110416,272.95078 -0.396875,1.52135 0.661458,3.14193 2.645833,2.91042 2.910417,0.39687 2.38125,-0.29766 -0.463021,-5.15937 -2.910417,-2.8112 z"
       id="path69621" /><path
       style="opacity:1;fill:none;fill-opacity:1;stroke:#000000;stroke-width:0.0980001;stroke-linecap:round;stroke-linejoin:miter;stroke-miterlimit:5.2;stroke-dasharray:none;stroke-opacity:1"
       d="m 78.829296,274.52174 2.926953,-0.0992 2.89388,2.59623 -0.03307,3.80338"
       id="path72632" /><path
       style="opacity:1;fill:#d7b700;fill-opacity:1;stroke:#000000;stroke-width:0.0980001;stroke-linecap:round;stroke-linejoin:miter;stroke-miterlimit:5.2;stroke-dasharray:none;stroke-opacity:1"
       d="m 81.772785,274.43906 2.067058,-1.75287"
       id="path72634" /><path
       style="opacity:1;fill:#d7b700;fill-opacity:1;stroke:#000000;stroke-width:0.0980001;stroke-linecap:round;stroke-linejoin:miter;stroke-miterlimit:5.2;stroke-dasharray:none;stroke-opacity:1"
       d="m 84.583983,277.00221 2.232422,-1.48828"
       id="path72636" /><ellipse
       style="opacity:0.864362;mix-blend-mode:normal;fill:#b92fff;fill-opacity:1;stroke:none;stroke-width:0.518819;stroke-linecap:round;stroke-linejoin:miter;stroke-miterlimit:5.2;stroke-dasharray:none;stroke-opacity:1;filter:url(#filter74817)"
       id="path73465"
       cx="82.858185"
       cy="276.53528"
       rx="6.1903734"
       ry="6.8094115"
       transform="matrix(0.80487643,0,0,0.80487643,16.663224,55.305011)" /></g></svg>
